<?xml version="1.0" standalone="no"?>
<!DOCTYPE svg PUBLIC "-//W3C//DTD SVG 20010904//EN"
 "http://www.w3.org/TR/2001/REC-SVG-20010904/DTD/svg10.dtd">
<svg version="1.0" xmlns="http://www.w3.org/2000/svg"
 width="251.000000pt" height="200.000000pt" viewBox="0 0 251.000000 200.000000"
 preserveAspectRatio="xMidYMid meet">

<g transform="translate(0.000000,200.000000) scale(0.100000,-0.100000)"
fill="#000000" stroke="none">
<path d="M446 1984 c-57 -21 -102 -58 -133 -111 -26 -45 -28 -55 -34 -228 -10
-248 -39 -378 -110 -481 -30 -44 -91 -86 -142 -98 -26 -6 -27 -9 -27 -66 l0
-59 38 -10 c155 -43 227 -214 241 -576 6 -173 8 -183 34 -228 31 -52 79 -93
134 -113 56 -19 1560 -19 1616 0 55 20 103 61 134 113 26 45 28 55 34 228 10
248 39 378 110 481 30 44 91 87 142 99 26 7 27 10 27 65 0 55 -1 58 -27 65
-51 12 -112 55 -142 99 -71 103 -100 233 -110 481 -6 173 -8 183 -34 228 -31
52 -79 93 -134 113 -58 20 -1561 19 -1617 -2z m939 -455 c71 -13 140 -47 177
-86 112 -118 81 -315 -61 -385 l-49 -25 55 -17 c71 -23 143 -91 162 -156 40
-133 -8 -273 -113 -335 -87 -51 -130 -57 -418 -62 l-268 -5 0 541 0 541 228 0
c126 0 255 -5 287 -11z"/>
<path d="M1050 1234 l0 -157 133 5 c155 6 213 25 247 80 25 42 27 119 3 159
-33 55 -82 69 -241 69 l-142 0 0 -156z"/>
<path d="M1048 780 l3 -172 167 4 c187 3 215 12 259 78 31 44 32 131 3 178
-37 60 -91 76 -275 80 l-160 4 3 -172z"/>
</g>
</svg>
