<?xml version="1.0" standalone="no"?>
<!DOCTYPE svg PUBLIC "-//W3C//DTD SVG 20010904//EN"
 "http://www.w3.org/TR/2001/REC-SVG-20010904/DTD/svg10.dtd">
<svg version="1.0" xmlns="http://www.w3.org/2000/svg"
 width="200.000000pt" height="200.000000pt" viewBox="0 0 200.000000 200.000000"
 preserveAspectRatio="xMidYMid meet">

<g transform="translate(0.000000,200.000000) scale(0.100000,-0.100000)"
fill="#000000" stroke="none">
<path d="M0 1000 l0 -1000 1000 0 1000 0 0 1000 0 1000 -1000 0 -1000 0 0
-1000z m470 95 c0 -33 2 -35 24 -29 19 4 32 -1 50 -20 54 -53 17 -115 -66
-114 l-48 0 0 99 c0 92 1 99 20 99 16 0 20 -7 20 -35z m310 -15 c0 -11 5 -20
10 -20 6 0 10 -9 10 -20 0 -11 -4 -20 -10 -20 -5 0 -10 -20 -10 -45 0 -38 -3
-45 -20 -45 -17 0 -20 7 -20 40 0 22 -6 50 -12 61 -10 17 -10 23 0 26 6 3 12
13 12 24 0 12 7 19 20 19 13 0 20 -7 20 -20z m448 -72 c-2 -60 -6 -73 -20 -76
-16 -3 -18 5 -18 58 0 56 12 89 33 90 4 0 7 -33 5 -72z m-302 38 c7 -6 15 -21
19 -33 6 -22 3 -23 -40 -23 -31 0 -44 -4 -39 -11 3 -6 16 -8 28 -5 11 3 27 1
35 -3 11 -7 8 -13 -13 -27 -52 -33 -109 14 -93 78 11 42 71 57 103 24z m403
15 c18 -12 5 -31 -22 -31 -19 0 -18 -3 11 -20 37 -23 40 -39 12 -65 -16 -15
-26 -17 -48 -9 -29 10 -32 28 -4 30 36 3 36 5 5 19 -36 16 -43 43 -17 69 17
18 42 20 63 7z m136 -16 c38 -37 33 -55 -15 -55 -23 0 -40 -5 -40 -11 0 -7 9
-9 21 -6 11 3 27 3 35 0 22 -8 -12 -43 -43 -43 -59 0 -85 82 -37 119 34 27 50
26 79 -4z m-835 -17 l12 -33 14 33 c9 20 21 32 34 32 19 0 18 -5 -14 -92 -26
-74 -37 -94 -54 -96 -20 -3 -21 -1 -11 27 10 29 4 60 -29 149 -2 7 4 12 16 12
13 0 24 -11 32 -32z m382 0 l15 -33 7 33 c6 25 13 32 30 32 17 0 26 -8 33 -32
l10 -33 13 33 c8 21 19 32 32 32 10 0 17 -3 15 -7 -2 -5 -12 -34 -22 -65 -22
-71 -47 -78 -66 -20 l-12 37 -12 -35 c-18 -53 -46 -47 -67 15 -21 62 -21 75
-5 75 7 0 20 -15 29 -32z"/>
<path d="M481 1017 c-17 -21 -3 -49 23 -45 15 2 21 10 21 28 0 28 -26 38 -44
17z"/>
<path d="M860 1020 c0 -5 9 -10 20 -10 11 0 20 5 20 10 0 6 -9 10 -20 10 -11
0 -20 -4 -20 -10z"/>
<path d="M1405 1020 c-3 -5 3 -10 14 -10 12 0 21 5 21 10 0 6 -6 10 -14 10 -8
0 -18 -4 -21 -10z"/>
</g>
</svg>
