<?xml version="1.0" standalone="no"?>
<!DOCTYPE svg PUBLIC "-//W3C//DTD SVG 20010904//EN"
 "http://www.w3.org/TR/2001/REC-SVG-20010904/DTD/svg10.dtd">
<svg version="1.0" xmlns="http://www.w3.org/2000/svg"
 width="1164.000000pt" height="1226.000000pt" viewBox="0 0 1164.000000 1226.000000"
 preserveAspectRatio="xMidYMid meet">

<g transform="translate(0.000000,1226.000000) scale(0.100000,-0.100000)"
fill="#000000" stroke="none">
<path d="M5420 12240 c-1362 -107 -2614 -686 -3594 -1665 -867 -867 -1450
-1964 -1696 -3195 -74 -373 -109 -713 -117 -1130 -6 -328 4 -554 38 -855 206
-1828 1189 -3464 2674 -4452 1231 -818 2729 -1120 4160 -837 944 186 1794 595
2555 1229 176 147 539 504 684 675 848 993 1347 2177 1482 3510 21 211 30 787
15 1010 -124 1862 -1006 3521 -2446 4600 -817 612 -1753 979 -2795 1095 -171
19 -781 28 -960 15z m725 -1780 c185 -22 303 -69 397 -161 107 -104 145 -231
135 -439 -16 -311 -165 -656 -481 -1110 -222 -321 -580 -784 -778 -1007 -124
-140 -626 -624 -720 -695 -187 -141 -352 -197 -503 -169 -150 27 -308 147
-375 285 -30 60 -35 81 -38 161 -5 112 10 173 76 299 64 121 180 262 373 451
252 247 364 344 1045 907 451 372 612 617 494 752 -71 81 -256 118 -400 82
-131 -33 -260 -106 -460 -260 -342 -263 -620 -534 -982 -957 -797 -931 -1154
-1775 -1077 -2544 23 -225 84 -378 193 -483 69 -66 119 -95 203 -117 155 -41
356 6 618 144 218 114 327 186 703 463 415 306 686 474 1112 686 582 292 1133
466 1714 544 219 29 652 32 826 5 253 -39 459 -102 665 -202 476 -230 770
-583 871 -1046 16 -68 19 -126 19 -309 -1 -256 -13 -336 -86 -555 -181 -545
-654 -1066 -1251 -1375 -314 -162 -594 -248 -982 -301 -223 -30 -723 -38 -934
-14 -221 25 -295 10 -342 -67 -11 -18 -45 -111 -76 -205 -127 -393 -388 -814
-672 -1085 -167 -158 -341 -286 -421 -308 -60 -17 -115 -12 -152 13 -81 54
-104 135 -96 337 7 212 53 338 214 600 39 63 117 203 173 310 57 107 152 283
210 390 158 286 205 379 197 387 -4 4 -91 28 -193 54 -204 53 -291 90 -364
156 -118 106 -118 231 -2 334 92 81 192 115 437 149 191 27 278 50 390 106
255 125 468 358 719 787 166 284 222 414 232 542 12 135 -32 209 -141 240 -86
25 -259 16 -380 -20 -270 -79 -470 -193 -1000 -569 -417 -296 -967 -608 -1350
-766 -306 -126 -603 -214 -830 -245 -141 -20 -372 -15 -473 9 -338 84 -584
326 -686 679 -44 153 -59 297 -53 522 8 300 57 581 167 968 390 1371 1159
2411 2284 3089 649 391 1370 610 1831 558z"/>
<path d="M7883 6486 c-17 -18 -47 -78 -68 -132 -242 -632 -482 -1170 -632
-1419 -64 -105 -138 -205 -217 -293 -141 -157 -140 -263 4 -306 76 -23 178
-20 369 9 338 52 580 126 831 252 201 101 318 183 468 328 136 131 226 247
287 370 156 316 71 566 -283 833 -65 48 -153 110 -197 137 -44 27 -134 82
-200 123 -162 101 -229 132 -286 132 -41 0 -51 -5 -76 -34z"/>
</g>
</svg>
